<?xml version="1.0" encoding="utf-8"?>
<!-- Generator: Adobe Illustrator 24.0.3, SVG Export Plug-In . SVG Version: 6.00 Build 0)  -->
<svg version="1.1" id="Layer_1" xmlns="http://www.w3.org/2000/svg" xmlns:xlink="http://www.w3.org/1999/xlink" x="0px" y="0px"
	 viewBox="0 0 960 560" style="enable-background:new 0 0 960 560;" xml:space="preserve">
<style type="text/css">
	.st0{fill:#9BDAEA;}
	.st1{fill:#FFFFFF;}
</style>
<g>
	<path class="st0" d="M815.2,236.5c0.8,0,1.5,0,2.1,0l0,0H815.2z"/>
	<path class="st0" d="M617.8,320.8c-0.8,0-1.5,0-2.1,0l0,0H617.8z"/>
	<g>
		<path class="st1" d="M127.1,170L83.9,272h32.6l7.1-17h29.9l7.5,17h32.6l-43.2-102H127.1z M133.8,229c0.6-2,4.4-13.8,4.8-15.5
			c0.6,1.7,4.2,13.5,4.8,15.5H133.8z"/>
		<polygon class="st1" points="249,228.6 279.8,272 302,272 302,170 273,170 273,213.4 242.6,170 220,170 220,272 249,272 		"/>
		<path class="st1" d="M374.3,168.9c-33.8,0-46.7,25.7-46.7,52c0,26.1,12.9,51.8,46.7,51.8c34,0,46.8-25.7,46.8-51.8
			C421.2,194.7,408.3,168.9,374.3,168.9z M374.3,243.2c-13.6,0-16.7-9.6-16.7-22.3c0-12.9,3.1-22.5,16.7-22.5
			c13.8,0,16.9,9.6,16.9,22.5C391.2,233.6,387.9,243.2,374.3,243.2z"/>
		<polygon class="st1" points="473,228.4 473,272 502,272 502,200 531,200 531,170 530.7,170 445,170 445,200 473,200 		"/>
		<polygon class="st1" points="616,207 590,207 590,170 560,170 560,272 590,272 590,233 616,233 616,272 646,272 646,170 616,170 
					"/>
		<polygon class="st1" points="678,272 757,272 757,242 708,242 708,233 751,233 751,207 708,207 708,200 757,200 757,170 678,170 
					"/>
		<path class="st1" d="M817,236.5c0,0-0.9-0.5-1.8-0.5h1.8V236.5c3,0.1,3.6,0.9,5.9,4.9l23.6,30.6H883l-29.9-39.8
			c-0.8-0.4-1.2-0.2-1.2-0.6c9.6-6,16.1-17,16.1-28.2c0-23-18.4-33.4-39.2-33.4H787v102h30V236.5z M817,198h11.3
			c7.3,0,9.4,1.9,9.4,5.5s-1.7,5.5-9.4,5.5H817V198z"/>
		<path class="st1" d="M843.3,303h-29.9l-7.5-18h-32.6l43.2,102h23.4L883,285h-32.6L843.3,303z M828.3,343.5
			c-0.6-1.7-4.2-13.5-4.8-15.5h9.6C832.5,330,828.7,341.8,828.3,343.5z"/>
		<path class="st1" d="M708.1,284.3c-19.6,0-27.8,6.1-42.8,22.5l21.3,20.5c8.8-9.6,14-13.4,21.7-13.4c12.5,0,18.2,10.4,18.2,22.5
			c0,11.9-5.8,22.3-18.2,22.3c-7.3,0-11.7-3.5-20.9-12.1l-21.1,20.7c13.6,15.2,24.6,20.9,42,20.9c33,0,48.6-25.3,48.6-51.8
			C756.9,309.6,741.1,284.3,708.1,284.3z"/>
		<path class="st1" d="M616,320.7c0,0,0.9,0.3,1.8,0.3H616V320.7c-3-0.1-3.6-1-5.9-5L586.5,285H550l30,40c0.8,0.4,1.1,0.3,1.1,0.7
			c-9.6,6-16.1,16.9-16.1,28.1c0,23,18.4,33.3,39.2,33.3H646V285h-30V320.7z M616,359h-11.3c-7.3,0-9.4-1.9-9.4-5.5s1.7-5.5,9.4-5.5
			H616V359z"/>
		<path class="st1" d="M487.2,284.3c-34,0-46.8,25.7-46.8,51.8c0,26.3,12.9,52,46.8,52c33.8,0,46.7-25.7,46.7-52
			C533.8,310,521,284.3,487.2,284.3z M487.2,358.6c-13.8,0-16.9-9.6-16.9-22.5c0-12.7,3.3-22.3,16.9-22.3s16.7,9.6,16.7,22.3
			C503.9,349,500.8,358.6,487.2,358.6z"/>
		<polygon class="st1" points="386,285 386,314.9 386,328.6 380.3,320.4 355.5,285 333,285 333,368.1 333,387 363,387 363,343.8 
			392.7,387 416,387 416,285 415.5,285 		"/>
		<polygon class="st1" points="276,285 246,285 246,319.4 208.9,387 242.9,387 261.3,354.6 279.4,387 313.3,387 276,319.6 		"/>
		<path class="st1" d="M160,313.3L147,285h-16.3L117,313.7V285H87v102h27c0.8-3,24.2-47.4,25-50.1l24.6,50.1H191V285h-31V313.3z"/>
	</g>
</g>
</svg>
